<svg version="1.1" id="Layer_1" xmlns="http://www.w3.org/2000/svg" xmlns:xlink="http://www.w3.org/1999/xlink" x="0px" y="0px"
	 width="100%" viewBox="0 0 311 311" enable-background="new 0 0 311 311" xml:space="preserve">
<path fill="#000000" opacity="1.000000" stroke="none" 
	d="
M173.000000,312.000000 
	C115.333359,312.000000 58.166721,312.000000 1.000061,312.000000 
	C1.000041,208.333405 1.000041,104.666817 1.000021,1.000173 
	C104.666542,1.000115 208.333084,1.000115 311.999725,1.000057 
	C311.999817,104.666496 311.999817,208.332993 311.999908,311.999756 
	C265.833344,312.000000 219.666672,312.000000 173.000000,312.000000 
M211.460678,241.007401 
	C205.341064,243.166504 199.371201,246.095764 193.070007,247.320999 
	C180.748611,249.716843 168.249161,252.543106 155.810425,252.605576 
	C143.702255,252.666382 131.323868,250.482651 119.534439,247.453812 
	C108.496201,244.617981 96.631790,242.076172 88.928391,230.729111 
	C89.468788,230.405899 90.344597,229.951721 91.146667,229.391891 
	C102.698433,221.328796 107.724716,210.610016 105.059853,196.432800 
	C102.592369,183.305618 94.763824,174.996902 82.204597,171.830536 
	C70.431114,168.862259 59.083870,170.936661 50.499203,180.192703 
	C34.854839,197.060516 39.902870,226.622696 66.180862,234.031067 
	C67.803459,234.488495 69.572365,235.703171 70.515358,237.083313 
	C75.769791,244.773590 81.645782,251.930939 90.196014,255.943054 
	C113.340820,266.803528 137.647308,271.388916 163.333832,270.209747 
	C179.719864,269.457520 195.317719,266.120789 210.733017,261.010284 
	C223.297134,256.845032 234.309952,250.606812 241.976028,239.374313 
	C248.783630,229.399658 251.023697,218.229050 251.026108,206.417465 
	C251.029861,187.921066 250.960342,169.424026 251.141602,150.929398 
	C251.157822,149.275070 252.396484,146.673096 253.720703,146.142853 
	C264.419983,141.858917 275.344330,138.138733 286.057922,133.888474 
	C292.506897,131.330063 299.522614,129.615723 303.945892,123.401878 
	C313.450378,110.049873 310.276184,89.629654 290.837097,82.929970 
	C275.952606,77.800034 261.421265,71.652878 246.595291,66.342247 
	C240.413559,64.127960 234.295135,59.497684 227.148834,63.887093 
	C226.727722,64.145752 225.853867,63.841927 225.259247,63.617897 
	C211.429276,58.407341 197.528717,53.371212 183.814835,47.870026 
	C174.739471,44.229542 165.281342,41.666962 155.738281,42.313793 
	C147.126312,42.897511 138.688507,46.036999 130.170273,48.033844 
	C128.941711,48.321838 127.400421,49.115917 126.499016,48.671501 
	C118.501785,44.728592 111.160049,47.641235 103.889000,50.676022 
	C98.554718,52.902443 94.202469,58.910431 95.121254,63.435703 
	C96.444298,69.952065 97.798500,76.676849 105.687935,79.056496 
	C112.197037,81.019806 117.807083,78.359512 123.433617,76.062126 
	C129.021805,73.780380 133.418228,70.276428 133.084427,63.271702 
	C133.045410,62.452950 133.913116,61.163193 134.691727,60.797932 
	C145.101135,55.914799 156.289474,53.871181 167.234390,56.933792 
	C180.951645,60.772156 194.189651,66.333733 207.609344,71.220665 
	C214.622696,73.774651 222.207321,75.356834 226.412781,82.704552 
	C227.087051,83.882660 229.108856,84.408806 230.605835,84.978508 
	C248.210312,91.678139 265.842072,98.306198 283.429626,105.049606 
	C284.443329,105.438271 285.137482,106.660271 285.980347,107.494453 
	C285.141205,108.332680 284.452057,109.558060 283.440033,109.950218 
	C271.171356,114.704391 258.851562,119.326477 246.551941,124.001068 
	C224.997040,132.193237 203.397217,140.270432 181.912598,148.643097 
	C167.941757,154.087585 153.951477,156.468826 139.437653,150.991714 
	C122.571411,144.626862 105.720078,138.220795 88.806015,131.985214 
	C82.590408,129.693741 76.692543,126.322449 69.588783,126.891037 
	C66.062218,127.173302 62.190372,126.985825 58.909508,125.803940 
	C46.996761,121.512566 35.223324,116.818375 23.523216,111.972221 
	C21.977026,111.331787 20.371689,108.994316 20.246956,107.333656 
	C20.143864,105.961113 21.912121,103.568398 23.328930,103.112549 
	C29.693611,101.064743 35.663898,94.066681 43.038906,100.923264 
	C43.225967,101.097168 43.692837,100.939850 44.017277,101.000656 
	C52.282074,102.549736 59.672318,100.127213 66.606369,95.896690 
	C71.173058,93.110504 72.731392,88.557571 71.858009,83.698143 
	C70.832169,77.990524 69.556084,72.021568 62.735767,69.863342 
	C55.271957,67.501503 48.689034,70.474289 41.992016,73.006477 
	C37.577183,74.675751 35.616394,78.304184 33.952148,82.352509 
	C33.460670,83.548058 32.315495,84.809448 31.151176,85.336166 
	C25.981157,87.674988 20.553524,89.473907 15.487012,92.004562 
	C9.025083,95.232208 6.416230,101.037132 6.651235,108.041794 
	C6.902011,115.516518 10.157460,121.249901 17.398222,124.052216 
	C29.664114,128.799347 42.012222,133.334991 54.257141,138.134628 
	C56.922821,139.179489 60.502594,140.373886 61.556396,142.528809 
	C63.699379,146.910965 67.220825,148.476105 71.196800,149.973053 
	C90.045380,157.069672 108.877419,164.210236 127.728745,171.299500 
	C140.804932,176.216934 154.242065,179.014984 168.132263,175.953857 
	C176.816162,174.040085 185.408203,171.484741 193.803894,168.539993 
	C206.793732,163.983917 219.580460,158.848770 233.026810,153.741348 
	C233.026810,155.912338 233.026810,157.528854 233.026810,159.145370 
	C233.026825,174.975616 233.103653,190.806335 233.005005,206.635971 
	C232.908279,222.154068 226.836456,234.158051 211.460678,241.007401 
z"/>
<path fill="#4491F6" opacity="1.000000" stroke="none" 
	d="
M211.847336,240.976242 
	C226.836456,234.158051 232.908279,222.154068 233.005005,206.635971 
	C233.103653,190.806335 233.026825,174.975616 233.026810,159.145370 
	C233.026810,157.528854 233.026810,155.912338 233.026810,153.741348 
	C219.580460,158.848770 206.793732,163.983917 193.803894,168.539993 
	C185.408203,171.484741 176.816162,174.040085 168.132263,175.953857 
	C154.242065,179.014984 140.804932,176.216934 127.728745,171.299500 
	C108.877419,164.210236 90.045380,157.069672 71.196800,149.973053 
	C67.220825,148.476105 63.699379,146.910965 61.556396,142.528809 
	C60.502594,140.373886 56.922821,139.179489 54.257141,138.134628 
	C42.012222,133.334991 29.664114,128.799347 17.398222,124.052216 
	C10.157460,121.249901 6.902011,115.516518 6.651235,108.041794 
	C6.416230,101.037132 9.025083,95.232208 15.487012,92.004562 
	C20.553524,89.473907 25.981157,87.674988 31.151176,85.336166 
	C32.315495,84.809448 33.460670,83.548058 33.952148,82.352509 
	C35.616394,78.304184 37.577183,74.675751 41.992016,73.006477 
	C48.689034,70.474289 55.271957,67.501503 62.735767,69.863342 
	C69.556084,72.021568 70.832169,77.990524 71.858009,83.698143 
	C72.731392,88.557571 71.173058,93.110504 66.606369,95.896690 
	C59.672318,100.127213 52.282074,102.549736 44.017277,101.000656 
	C43.692837,100.939850 43.225967,101.097168 43.038906,100.923264 
	C35.663898,94.066681 29.693611,101.064743 23.328930,103.112549 
	C21.912121,103.568398 20.143864,105.961113 20.246956,107.333656 
	C20.371689,108.994316 21.977026,111.331787 23.523216,111.972221 
	C35.223324,116.818375 46.996761,121.512566 58.909508,125.803940 
	C62.190372,126.985825 66.062218,127.173302 69.588783,126.891037 
	C76.692543,126.322449 82.590408,129.693741 88.806015,131.985214 
	C105.720078,138.220795 122.571411,144.626862 139.437653,150.991714 
	C153.951477,156.468826 167.941757,154.087585 181.912598,148.643097 
	C203.397217,140.270432 224.997040,132.193237 246.551941,124.001068 
	C258.851562,119.326477 271.171356,114.704391 283.440033,109.950218 
	C284.452057,109.558060 285.141205,108.332680 285.980347,107.494446 
	C285.137482,106.660271 284.443329,105.438271 283.429626,105.049606 
	C265.842072,98.306198 248.210312,91.678139 230.605835,84.978508 
	C229.108856,84.408806 227.087051,83.882660 226.412781,82.704552 
	C222.207321,75.356834 214.622696,73.774651 207.609344,71.220665 
	C194.189651,66.333733 180.951645,60.772156 167.234390,56.933792 
	C156.289474,53.871181 145.101135,55.914799 134.691727,60.797932 
	C133.913116,61.163193 133.045410,62.452950 133.084427,63.271702 
	C133.418228,70.276428 129.021805,73.780380 123.433617,76.062126 
	C117.807083,78.359512 112.197037,81.019806 105.687935,79.056496 
	C97.798500,76.676849 96.444298,69.952065 95.121254,63.435703 
	C94.202469,58.910431 98.554718,52.902443 103.889000,50.676022 
	C111.160049,47.641235 118.501785,44.728592 126.499016,48.671501 
	C127.400421,49.115917 128.941711,48.321838 130.170273,48.033844 
	C138.688507,46.036999 147.126312,42.897511 155.738281,42.313793 
	C165.281342,41.666962 174.739471,44.229542 183.814835,47.870026 
	C197.528717,53.371212 211.429276,58.407341 225.259247,63.617897 
	C225.853867,63.841927 226.727722,64.145752 227.148834,63.887093 
	C234.295135,59.497684 240.413559,64.127960 246.595291,66.342247 
	C261.421265,71.652878 275.952606,77.800034 290.837097,82.929970 
	C310.276184,89.629654 313.450378,110.049873 303.945892,123.401878 
	C299.522614,129.615723 292.506897,131.330063 286.057922,133.888474 
	C275.344330,138.138733 264.419983,141.858917 253.720703,146.142853 
	C252.396484,146.673096 251.157822,149.275070 251.141602,150.929398 
	C250.960342,169.424026 251.029861,187.921066 251.026108,206.417465 
	C251.023697,218.229050 248.783630,229.399658 241.976028,239.374313 
	C234.309952,250.606812 223.297134,256.845032 210.733017,261.010284 
	C195.317719,266.120789 179.719864,269.457520 163.333832,270.209747 
	C137.647308,271.388916 113.340820,266.803528 90.196014,255.943054 
	C81.645782,251.930939 75.769791,244.773590 70.515358,237.083313 
	C69.572365,235.703171 67.803459,234.488495 66.180862,234.031067 
	C39.902870,226.622696 34.854839,197.060516 50.499203,180.192703 
	C59.083870,170.936661 70.431114,168.862259 82.204597,171.830536 
	C94.763824,174.996902 102.592369,183.305618 105.059853,196.432800 
	C107.724716,210.610016 102.698433,221.328796 91.146667,229.391891 
	C90.344597,229.951721 89.468788,230.405899 88.928391,230.729111 
	C96.631790,242.076172 108.496201,244.617981 119.534439,247.453812 
	C131.323868,250.482651 143.702255,252.666382 155.810425,252.605576 
	C168.249161,252.543106 180.748611,249.716843 193.070007,247.320999 
	C199.371201,246.095764 205.341064,243.166504 211.847336,240.976242 
M83.029045,214.548950 
	C89.169479,210.597015 90.945381,202.021133 87.043877,195.161118 
	C83.036827,188.115494 74.470276,185.023468 67.665359,188.166595 
	C60.137012,191.643875 56.083073,201.338806 59.347820,208.696381 
	C62.699810,216.250580 74.042969,221.928253 83.029045,214.548950 
z"/>
<path fill="#000000" opacity="1.000000" stroke="none" 
	d="
M82.740776,214.807129 
	C74.042969,221.928253 62.699810,216.250580 59.347820,208.696381 
	C56.083073,201.338806 60.137012,191.643875 67.665359,188.166595 
	C74.470276,185.023468 83.036827,188.115494 87.043877,195.161118 
	C90.945381,202.021133 89.169479,210.597015 82.740776,214.807129 
z"/>
</svg>